<svg data-v-c493b844="" width="181" height="181" viewBox="0 0 181 181" fill="none" xmlns="http://www.w3.org/2000/svg"><g data-v-c493b844="" filter="url(#filter0_i_14701_7593)"><path data-v-c493b844="" d="M159.499 31.7133C127.273 -6.1286 70.4712 -10.6808 32.6293 21.5457C-5.21257 53.7722 -9.76475 110.574 22.4617 148.416C54.6882 186.258 111.49 190.81 149.332 158.583C187.174 126.357 191.726 69.5551 159.499 31.7133Z" fill="url(#paint0_radial_14701_7593)"></path> <path data-v-c493b844="" d="M159.499 31.7133C127.273 -6.1286 70.4712 -10.6808 32.6293 21.5457C-5.21257 53.7722 -9.76475 110.574 22.4617 148.416C54.6882 186.258 111.49 190.81 149.332 158.583C187.174 126.357 191.726 69.5551 159.499 31.7133Z" fill="url(#paint1_radial_14701_7593)"></path></g> <path data-v-c493b844="" d="M101.077 89.4751L96.5722 77.3112L84.402 81.8183L81.7807 74.7403L101.029 67.6113L108.155 86.8537L101.077 89.4751ZM112.628 98.929L110.006 91.8508L102.929 94.472L105.55 101.55L112.628 98.929ZM97.9304 96.3239L85.7663 100.829L81.2591 88.6587L74.1798 91.2762L74.1809 91.2799L81.3094 110.528L100.562 103.399L97.9304 96.3239ZM79.4086 83.6684L76.7872 76.5902L69.7095 79.2114L72.3308 86.2896L79.4086 83.6684Z" fill="url(#paint2_linear_14701_7593)"></path> <path data-v-c493b844="" d="M86.2518 86.8072L86.2496 86.8062L93.4319 84.1463L96.0893 91.3222L96.0931 91.332L96.083 91.336L88.9072 93.9937L86.2472 86.8114L86.2462 86.8075L86.2518 86.8072Z" fill="url(#paint3_linear_14701_7593)"></path> <defs data-v-c493b844=""><filter data-v-c493b844="" id="filter0_i_14701_7593" x="0.980469" y="0.0644531" width="180" height="180" filterUnits="userSpaceOnUse" color-interpolation-filters="sRGB"><feFlood data-v-c493b844="" flood-opacity="0" result="BackgroundImageFix"></feFlood> <feBlend data-v-c493b844="" mode="normal" in="SourceGraphic" in2="BackgroundImageFix" result="shape"></feBlend> <feColorMatrix data-v-c493b844="" in="SourceAlpha" type="matrix" values="0 0 0 0 0 0 0 0 0 0 0 0 0 0 0 0 0 0 127 0" result="hardAlpha"></feColorMatrix> <feOffset data-v-c493b844=""></feOffset> <feGaussianBlur data-v-c493b844="" stdDeviation="13.2096"></feGaussianBlur> <feComposite data-v-c493b844="" in2="hardAlpha" operator="arithmetic" k2="-1" k3="1"></feComposite> <feColorMatrix data-v-c493b844="" type="matrix" values="0 0 0 0 0.844 0 0 0 0 0.5125 0 0 0 0 1 0 0 0 0.56 0"></feColorMatrix> <feBlend data-v-c493b844="" mode="normal" in2="shape" result="effect1_innerShadow_14701_7593"></feBlend></filter> <radialGradient data-v-c493b844="" id="paint0_radial_14701_7593" cx="0" cy="0" r="1" gradientUnits="userSpaceOnUse" gradientTransform="translate(22.4568 148.905) rotate(-38.9698) scale(206.72 206.72)"><stop data-v-c493b844="" stop-color="#C84F3F"></stop> <stop data-v-c493b844="" offset="0.692708" stop-color="#C89C41"></stop> <stop data-v-c493b844="" offset="0.880208" stop-color="white"></stop></radialGradient> <radialGradient data-v-c493b844="" id="paint1_radial_14701_7593" cx="0" cy="0" r="1" gradientUnits="userSpaceOnUse" gradientTransform="translate(32.1373 139.298) rotate(-38.5602) scale(193.157 172.03)"><stop data-v-c493b844="" stop-color="#45122B"></stop> <stop data-v-c493b844="" offset="0.692708" stop-color="#1B1200"></stop> <stop data-v-c493b844="" offset="0.880208" stop-color="#FFE7D1"></stop></radialGradient> <linearGradient data-v-c493b844="" id="paint2_linear_14701_7593" x1="70.3243" y1="78.4796" x2="112.583" y2="102.095" gradientUnits="userSpaceOnUse"><stop data-v-c493b844="" offset="0.273858" stop-color="#C69C4A" stop-opacity="0.28"></stop> <stop data-v-c493b844="" offset="1" stop-color="#FF6B00" stop-opacity="0"></stop></linearGradient> <linearGradient data-v-c493b844="" id="paint3_linear_14701_7593" x1="70.3243" y1="78.4796" x2="112.583" y2="102.095" gradientUnits="userSpaceOnUse"><stop data-v-c493b844="" offset="0.273858" stop-color="#C69C4A" stop-opacity="0.28"></stop> <stop data-v-c493b844="" offset="1" stop-color="#FF6B00" stop-opacity="0"></stop></linearGradient></defs></svg>