<svg data-v-44de1e4b="" width="64" height="64" viewBox="0 0 64 64" fill="none" xmlns="http://www.w3.org/2000/svg" class="graphics__item"><path d="M57 21.321V42.7068C57.0001 43.844 56.7008 44.9611 56.1321 45.9459C55.5634 46.9307 54.7455 47.7484 53.7605 48.3167L51.502 49.6177L46.5218 52.4799L35.2395 58.9849C34.2547 59.5538 33.1374 59.8534 32 59.8534C30.8626 59.8534 29.7454 59.5538 28.7605 58.9849L17.4783 52.4799L12.4642 49.6047L10.2291 48.3167C9.24607 47.747 8.43022 46.9288 7.86343 45.9441C7.29664 44.9595 6.99887 43.8429 7 42.7068V21.321C7.00026 20.1836 7.29972 19.0662 7.86833 18.081C8.43694 17.0959 9.25469 16.2776 10.2395 15.7085L12.4642 14.4309L12.7712 14.2539L20.9779 22.4685C22.2306 23.7206 23.2243 25.2073 23.9023 26.8436C24.5803 28.4798 24.9292 30.2336 24.9292 32.0048C24.9292 33.7759 24.5803 35.5298 23.9023 37.1661C23.2243 38.8023 22.2306 40.289 20.9779 41.5411C20.8771 41.64 20.7974 41.7583 20.7437 41.8888C20.69 42.0194 20.6635 42.1595 20.6656 42.3007C20.6678 42.4419 20.6987 42.5812 20.7564 42.71C20.8142 42.8388 20.8975 42.9546 21.0014 43.0503C21.2101 43.2354 21.4821 43.3327 21.7609 43.3221C22.0397 43.3114 22.3036 43.1935 22.4975 42.993C25.0243 40.4842 28.4406 39.0763 32.0013 39.0763C35.562 39.0763 38.9783 40.4842 41.5051 42.993C41.6993 43.1922 41.9625 43.3092 42.2405 43.3198C42.5184 43.3305 42.7898 43.234 42.9986 43.0503C43.1025 42.9546 43.1858 42.8388 43.2436 42.71C43.3013 42.5812 43.3322 42.4419 43.3344 42.3007C43.3366 42.1595 43.31 42.0194 43.2563 41.8888C43.2026 41.7583 43.123 41.64 43.0221 41.5411C41.7698 40.2888 40.7763 38.8021 40.0986 37.1658C39.4208 35.5296 39.0719 33.7759 39.0719 32.0048C39.0719 30.2337 39.4208 28.48 40.0986 26.8437C40.7763 25.2075 41.7698 23.7208 43.0221 22.4685C43.1356 22.3576 43.2223 22.2221 43.2754 22.0726C43.3285 21.923 43.3467 21.7632 43.3287 21.6056C43.3105 21.4478 43.2567 21.2964 43.1711 21.1627C43.0854 21.0291 42.9704 20.9168 42.8347 20.8344C42.6279 20.7094 42.3848 20.6582 42.1451 20.6894C41.9054 20.7206 41.6834 20.8323 41.5155 21.0062C38.9846 23.5258 35.5574 24.9384 31.9861 24.934C28.4148 24.9296 24.991 23.5085 22.4663 20.9827L14.6603 13.1767L17.5225 11.5193L28.7605 5.01686C29.7454 4.44795 30.8626 4.14844 32 4.14844C33.1374 4.14844 34.2547 4.44795 35.2395 5.01686L46.4931 11.5219L51.5176 14.4231L53.7605 15.7241C54.743 16.292 55.5593 17.1077 56.1278 18.0898C56.6963 19.072 56.9971 20.1862 57 21.321Z" fill="#F2F2F2"></path></svg>