<svg data-v-44de1e4b="" width="64" height="64" viewBox="0 0 64 64" fill="none" xmlns="http://www.w3.org/2000/svg" class="graphics__item" data-v-66da6293=""><path fill-rule="evenodd" clip-rule="evenodd" d="M32.966 20.8004V11.2004L41.2798 6.40039L49.5937 11.2004V20.8004L41.2798 25.6004L32.966 20.8004ZM31.9998 22.2404L23.686 27.0404V36.6404L31.9998 41.4404L40.3137 36.6404V27.0404L31.9998 22.2404ZM31.9998 25.5659L37.4337 28.7032V34.9776L31.9998 38.1149L26.566 34.9776V28.7032L31.9998 25.5659ZM42.246 36.6404L50.5598 41.4404L58.8737 36.6404V27.0404L50.5598 22.2404L42.246 27.0404V36.6404ZM50.5598 38.1149L45.126 34.9776V28.7032L50.5598 25.5659L55.9937 28.7032V34.9776L50.5598 38.1149ZM31.0337 52.8004V43.2004L22.7198 38.4004L14.406 43.2004V52.8004L22.7198 57.6004L31.0337 52.8004ZM22.7198 54.2748L28.1537 51.1376V44.8632L22.7198 41.7259L17.286 44.8632V51.1376L22.7198 54.2748ZM21.7537 36.6404V27.0404L13.4398 22.2404L5.12598 27.0404V36.6404L13.4398 41.4404L21.7537 36.6404ZM18.8737 28.7032V34.9776L13.4398 38.1149L8.00598 34.9776V28.7032L13.4398 25.5659L18.8737 28.7032ZM22.7198 25.6004L31.0337 20.8004V11.2004L22.7198 6.40039L14.406 11.2004V20.8004L22.7198 25.6004ZM28.1537 19.1376L22.7198 22.2749L17.286 19.1376V12.8632L22.7198 9.72593L28.1537 12.8632V19.1376ZM32.966 52.8004L41.2798 57.6004L49.5937 52.8004V43.2004L41.2798 38.4004L32.966 43.2004V52.8004ZM35.846 51.1376V44.8632L41.2798 41.7259L46.7137 44.8632V51.1376L41.2798 54.2748L35.846 51.1376ZM46.7137 19.1376L41.2798 22.2749L35.846 19.1376V12.8632L41.2798 9.72593L46.7137 12.8632V19.1376Z" fill="white"></path></svg>