<svg data-v-44de1e4b="" width="64" height="64" viewBox="0 0 64 64" fill="none" xmlns="http://www.w3.org/2000/svg" class="graphics__item" data-v-66da6293=""><path d="M33.4722 20.7616H31.576V27.5387H33.4722V20.7616Z" fill="white"></path> <path d="M28.9775 33.0376C28.8581 32.7777 28.7388 32.567 28.7107 32.567C28.6826 32.567 27.5449 33.2131 26.1824 33.9927L23.7103 35.4043C23.7103 37.0687 23.7314 37.5392 23.7665 37.5322C23.8016 37.5252 25.143 36.7527 26.7513 35.8257L29.6728 34.1402C29.3006 33.6556 29.0969 33.2974 28.9775 33.0376Z" fill="white"></path> <path d="M41.2676 35.4745C37.5876 33.3325 36.478 32.6935 36.4218 32.6724C36.3446 32.6443 36.2673 32.7496 36.1409 33.0376C36.0426 33.2623 35.8319 33.6134 35.6774 33.8241L35.3824 34.2104C39.5751 36.6614 40.9024 37.4269 41.0289 37.4971L41.2676 37.6235V35.4745Z" fill="white"></path> <path fill-rule="evenodd" clip-rule="evenodd" d="M32.7348 27.96C33.0789 27.9811 33.4511 28.0443 33.718 28.1426C33.9498 28.2269 34.3079 28.4165 34.5186 28.55C34.7293 28.6904 35.0243 28.9503 35.1788 29.1188C35.3262 29.2944 35.558 29.6596 35.6914 29.9264C35.8179 30.2003 35.9583 30.6428 36.0075 30.9096C36.0637 31.2678 36.0637 31.5347 36.0145 31.8577C35.9724 32.1106 35.874 32.4898 35.7968 32.7005C35.7195 32.9182 35.5159 33.2763 35.3403 33.5081C35.1717 33.7469 34.8417 34.0699 34.6169 34.2385C34.3922 34.4 34.041 34.5966 33.8374 34.6739C33.6337 34.7512 33.2615 34.8425 33.0157 34.8776C32.7114 34.9244 32.4071 34.9244 32.1027 34.8776C31.8499 34.8425 31.4777 34.7512 31.274 34.6739C31.0704 34.5966 30.7192 34.4 30.4945 34.2385C30.2698 34.0699 29.9397 33.7469 29.7711 33.5081C29.5956 33.2763 29.3919 32.9182 29.3146 32.7005C29.2374 32.4898 29.1391 32.1106 29.0969 31.8577C29.0478 31.5347 29.0478 31.2678 29.1039 30.9096C29.1531 30.6428 29.2936 30.2003 29.42 29.9264C29.5534 29.6596 29.7852 29.2944 29.9397 29.1188C30.0872 28.9503 30.3891 28.6904 30.5928 28.55C30.8035 28.4095 31.1687 28.2339 31.4004 28.1496C31.6322 28.0724 31.8991 27.9881 31.9974 27.9741C32.0887 27.953 32.4258 27.953 32.7348 27.96ZM31.1055 30.8394C31.1687 30.6919 31.3232 30.4602 31.4496 30.3408C31.576 30.2214 31.7727 30.0739 31.892 30.0107C32.0114 29.9475 32.2783 29.8983 32.5382 29.8983C32.8331 29.8937 33.0672 29.9358 33.2404 30.0248C33.3879 30.102 33.5986 30.2635 33.718 30.397C33.8374 30.5234 33.9778 30.7622 34.027 30.9096C34.0762 31.0641 34.1043 31.3732 34.0902 31.5909C34.0691 31.8858 34.013 32.0614 33.8514 32.2931C33.711 32.4945 33.512 32.6607 33.2545 32.7918C33.0087 32.9182 32.7629 32.9884 32.5592 32.9884C32.3485 32.9884 32.1027 32.9182 31.8569 32.7918C31.5994 32.6607 31.4004 32.4945 31.26 32.2931C31.0914 32.0544 31.0423 31.8999 31.0212 31.5557C31.0072 31.2748 31.0352 31.022 31.1055 30.8394Z" fill="white"></path> <path fill-rule="evenodd" clip-rule="evenodd" d="M29.4691 14.0898H35.6493V20.27H29.4691V14.0898ZM33.7531 18.444H31.3653V15.986H33.7531V18.444Z" fill="white"></path> <path fill-rule="evenodd" clip-rule="evenodd" d="M17.0386 35.4394H23.2187V41.6195H17.0386V35.4394ZM21.3226 39.7936H18.9348V37.3356H21.3226V39.7936Z" fill="white"></path> <path fill-rule="evenodd" clip-rule="evenodd" d="M41.7592 35.5096L47.9043 35.5447V41.7249L41.7592 41.76V35.5096ZM46.0362 39.8708H43.5782V37.4128H46.0362V39.8708Z" fill="white"></path> <circle cx="32.5" cy="31.5" r="26" stroke="white" stroke-width="2"></circle></svg>