<svg data-v-c493b844="" width="171" height="171" viewBox="0 0 171 171" fill="none" xmlns="http://www.w3.org/2000/svg"><path data-v-c493b844="" d="M16.5623 135.211C-10.6957 96.9952 -1.81308 43.9185 36.4022 16.6605C74.6176 -10.5976 127.694 -1.71495 154.952 36.5004C182.21 74.7157 173.328 127.792 135.112 155.05C96.8971 182.308 43.8204 173.426 16.5623 135.211Z" fill="url(#paint0_radial_14701_7624)"></path> <path data-v-c493b844="" fill-rule="evenodd" clip-rule="evenodd" d="M68.5766 72.2096L89.1616 63.8493L106.695 77.4954L103.643 99.5018L83.0583 107.862L65.525 94.216L68.5766 72.2096ZM70.0284 73.3395L88.9089 65.6715L104.99 78.1877L102.191 98.3719L83.311 106.04L67.2295 93.5237L70.0284 73.3395Z" fill="url(#paint1_linear_14701_7624)"></path> <path data-v-c493b844="" d="M95.5979 74.4089L96.2189 82.6382L77.7857 80.0821L80.6225 72.3323L95.5979 74.4089Z" fill="url(#paint2_linear_14701_7624)"></path> <path data-v-c493b844="" d="M89.2956 87.0594L89.2253 91.8594L81.4222 90.7773L82.6606 86.1393L81.5383 81.6978L91.5842 83.0908L89.2956 87.0594Z" fill="url(#paint3_linear_14701_7624)"></path> <path data-v-c493b844="" d="M90.8843 87.2797L95.869 85.1613L100.317 89.4925L91.7685 100.308L88.9182 99.9124L86.1491 96.5283L86.3564 95.0332L90.1781 92.3725L90.8843 87.2797Z" fill="url(#paint4_linear_14701_7624)"></path> <path data-v-c493b844="" d="M81.072 85.919L76.8518 82.5242L71.3936 85.4817L76.6762 98.2148L79.5264 98.6101L83.1119 96.1071L83.3193 94.612L80.3658 91.0118L81.072 85.919Z" fill="url(#paint5_linear_14701_7624)"></path> <defs data-v-c493b844=""><radialGradient data-v-c493b844="" id="paint0_radial_14701_7624" cx="0" cy="0" r="1" gradientUnits="userSpaceOnUse" gradientTransform="translate(170.421 148.854) rotate(-145.386) scale(206.506)"><stop data-v-c493b844="" offset="0.473925" stop-color="#07090F"></stop> <stop data-v-c493b844="" offset="0.702566" stop-color="#07193E"></stop> <stop data-v-c493b844="" offset="0.926338" stop-color="#015980"></stop></radialGradient> <linearGradient data-v-c493b844="" id="paint1_linear_14701_7624" x1="67.7269" y1="64.391" x2="108.08" y2="110.755" gradientUnits="userSpaceOnUse"><stop data-v-c493b844="" stop-color="#68DBFF" stop-opacity="0.26"></stop> <stop data-v-c493b844="" offset="1" stop-color="#48D3FF" stop-opacity="0"></stop></linearGradient> <linearGradient data-v-c493b844="" id="paint2_linear_14701_7624" x1="67.7269" y1="64.391" x2="108.08" y2="110.755" gradientUnits="userSpaceOnUse"><stop data-v-c493b844="" stop-color="#68DBFF" stop-opacity="0.26"></stop> <stop data-v-c493b844="" offset="1" stop-color="#48D3FF" stop-opacity="0"></stop></linearGradient> <linearGradient data-v-c493b844="" id="paint3_linear_14701_7624" x1="67.7269" y1="64.391" x2="108.08" y2="110.755" gradientUnits="userSpaceOnUse"><stop data-v-c493b844="" stop-color="#68DBFF" stop-opacity="0.26"></stop> <stop data-v-c493b844="" offset="1" stop-color="#48D3FF" stop-opacity="0"></stop></linearGradient> <linearGradient data-v-c493b844="" id="paint4_linear_14701_7624" x1="67.7269" y1="64.391" x2="108.08" y2="110.755" gradientUnits="userSpaceOnUse"><stop data-v-c493b844="" stop-color="#68DBFF" stop-opacity="0.26"></stop> <stop data-v-c493b844="" offset="1" stop-color="#48D3FF" stop-opacity="0"></stop></linearGradient> <linearGradient data-v-c493b844="" id="paint5_linear_14701_7624" x1="67.7269" y1="64.391" x2="108.08" y2="110.755" gradientUnits="userSpaceOnUse"><stop data-v-c493b844="" stop-color="#68DBFF" stop-opacity="0.26"></stop> <stop data-v-c493b844="" offset="1" stop-color="#48D3FF" stop-opacity="0"></stop></linearGradient></defs></svg>