<svg data-v-c493b844="" width="169" height="169" viewBox="0 0 169 169" fill="none" xmlns="http://www.w3.org/2000/svg"><g data-v-c493b844="" filter="url(#filter0_i_14701_7597)"><path data-v-c493b844="" d="M140.841 146.334C175.027 114.973 177.316 61.8368 145.955 27.6511C114.594 -6.53459 61.4579 -8.82429 27.2722 22.5369C-6.91349 53.8981 -9.20318 107.034 22.158 141.22C53.5192 175.406 106.655 177.695 140.841 146.334Z" fill="url(#paint0_radial_14701_7597)"></path></g> <g data-v-c493b844="" opacity="0.5"><path data-v-c493b844="" d="M90.1877 60.7796L89.5725 61.7878L81.0629 93.546L81.2987 93.9537L98.3754 89.19L90.1877 60.7796Z" fill="white" fill-opacity="0.82"></path> <path data-v-c493b844="" d="M90.1881 60.7801L68.8922 81.2903L81.2991 93.9544L85.4294 78.5399L90.1881 60.7801Z" fill="white" fill-opacity="0.333"></path> <path data-v-c493b844="" d="M80.5509 96.7444L80.3102 96.917L77.2789 108.23L77.3183 108.809L97.6352 91.9874L80.5509 96.7444Z" fill="white" fill-opacity="0.82"></path> <path data-v-c493b844="" d="M77.3186 108.81L80.5512 96.7455L68.1431 84.0859L77.3186 108.81Z" fill="white" fill-opacity="0.333"></path> <path data-v-c493b844="" d="M81.299 93.9533L98.3754 89.1896L85.4292 78.5391L81.299 93.9533Z" fill="white"></path> <path data-v-c493b844="" d="M68.8921 81.2904L81.2989 93.9541L85.4291 78.5398L68.8921 81.2904Z" fill="white" fill-opacity="0.82"></path></g> <defs data-v-c493b844=""><filter data-v-c493b844="" id="filter0_i_14701_7597" x="0.0566406" y="0.435547" width="168" height="168" filterUnits="userSpaceOnUse" color-interpolation-filters="sRGB"><feFlood data-v-c493b844="" flood-opacity="0" result="BackgroundImageFix"></feFlood> <feBlend data-v-c493b844="" mode="normal" in="SourceGraphic" in2="BackgroundImageFix" result="shape"></feBlend> <feColorMatrix data-v-c493b844="" in="SourceAlpha" type="matrix" values="0 0 0 0 0 0 0 0 0 0 0 0 0 0 0 0 0 0 127 0" result="hardAlpha"></feColorMatrix> <feOffset data-v-c493b844=""></feOffset> <feGaussianBlur data-v-c493b844="" stdDeviation="23"></feGaussianBlur> <feComposite data-v-c493b844="" in2="hardAlpha" operator="arithmetic" k2="-1" k3="1"></feComposite> <feColorMatrix data-v-c493b844="" type="matrix" values="0 0 0 0 0.917667 0 0 0 0 0.683333 0 0 0 0 1 0 0 0 0.42 0"></feColorMatrix> <feBlend data-v-c493b844="" mode="normal" in2="shape" result="effect1_innerShadow_14701_7597"></feBlend></filter> <radialGradient data-v-c493b844="" id="paint0_radial_14701_7597" cx="0" cy="0" r="1" gradientUnits="userSpaceOnUse" gradientTransform="translate(-16.0508 62.8614) rotate(7.1653) scale(176.377 141.046)"><stop data-v-c493b844="" stop-color="#F9FDFF"></stop> <stop data-v-c493b844="" offset="0.828199" stop-color="#5B4BB9"></stop> <stop data-v-c493b844="" offset="1" stop-color="#386480"></stop></radialGradient></defs></svg>