<svg data-v-44de1e4b="" width="64" height="64" viewBox="0 0 64 64" fill="none" xmlns="http://www.w3.org/2000/svg" class="graphics__item"><g clip-path="url(#clip0_14701_7862)"><path d="M8.30247 15.8281H4V48.215H8.30247V15.8281Z" fill="white"></path> <path d="M24.3195 36.4008H22.1042C17.528 36.4008 13.8057 32.6786 13.8057 28.1025V15.8184H26.5373C31.1135 15.8184 34.8358 19.5405 34.8358 24.1166V27.329H30.5334V24.1166C30.5334 21.914 28.74 20.1207 26.5373 20.1207H18.1081V28.1025C18.1081 30.3052 19.9015 32.0985 22.1042 32.0985H24.3195V36.4008ZM35.2653 39.8894V36.0241C35.2653 31.448 31.543 27.7258 26.9668 27.7258H24.3195V32.0281H26.9668C29.1695 32.0281 30.9628 33.8214 30.9628 36.0241V39.8894C30.9628 42.0921 29.1695 43.8853 26.9668 43.8853H18.1081V36.6821H13.8057V48.1877H26.9668C31.543 48.1877 35.2653 44.4655 35.2653 39.8894Z" fill="white"></path> <path d="M49.9183 48.8017H49.2024C43.6441 48.8017 39.1206 44.2784 39.1206 38.7202V25.2807C39.1206 19.7226 43.6441 15.1992 49.2024 15.1992H49.9183C55.4766 15.1992 60.0001 19.7226 60.0001 25.2807H55.6976C55.6976 22.096 53.1055 19.5041 49.9208 19.5041H49.205C46.0202 19.5041 43.4281 22.096 43.4281 25.2807V38.7202C43.4281 41.9049 46.0202 44.4969 49.205 44.4969H49.9208C53.1055 44.4969 55.6976 41.9049 55.6976 38.7202H60.0001C60.0001 44.2784 55.4766 48.8017 49.9183 48.8017Z" fill="white"></path></g> <defs><clipPath id="clip0_14701_7862"><rect width="56" height="33.6" fill="white" transform="translate(4 15.2012)"></rect></clipPath></defs></svg>