<svg data-v-c493b844="" width="187" height="187" viewBox="0 0 187 187" fill="none" xmlns="http://www.w3.org/2000/svg"><path data-v-c493b844="" d="M130.902 178.365C83.8588 199.168 28.8586 177.897 8.05512 130.854C-12.7483 83.8115 8.52283 28.8113 55.5656 8.00786C102.608 -12.7956 157.609 8.47558 178.412 55.5184C199.216 102.561 177.944 157.561 130.902 178.365Z" fill="url(#paint0_radial_14701_7620)"></path> <path data-v-c493b844="" d="M98.4423 86.1516C100.406 86.1516 101.997 84.535 101.997 82.5409C101.997 80.5468 100.406 78.9302 98.4423 78.9302C96.4791 78.9302 94.8875 80.5468 94.8875 82.5409C94.8875 84.535 96.4791 86.1516 98.4423 86.1516Z" fill="url(#paint1_linear_14701_7620)"></path> <path data-v-c493b844="" d="M104.248 88.8391C105.077 88.8391 105.749 88.1566 105.749 87.3147C105.749 86.4727 105.077 85.7902 104.248 85.7902C103.42 85.7902 102.748 86.4727 102.748 87.3147C102.748 88.1566 103.42 88.8391 104.248 88.8391Z" fill="url(#paint2_linear_14701_7620)"></path> <path data-v-c493b844="" d="M109.62 79.6524C109.581 79.6524 109.541 79.6524 109.541 79.6524C109.304 79.6123 109.146 79.3716 109.185 79.0907C109.541 77.2453 111.042 75.4801 111.121 75.3999C111.279 75.1993 111.595 75.1993 111.753 75.3597C111.95 75.5202 111.95 75.8412 111.792 76.0016C111.753 76.0417 110.37 77.6866 110.054 79.2913C110.015 79.5321 109.817 79.6524 109.62 79.6524Z" fill="url(#paint3_linear_14701_7620)"></path> <path data-v-c493b844="" fill-rule="evenodd" clip-rule="evenodd" d="M117.836 75.3597C117.283 73.2334 115.505 71.1072 112.306 68.7402C109.739 66.8547 107.013 65.7715 104.841 65.7715C104.406 65.7715 104.011 65.8116 103.616 65.8918C102.629 66.0924 101.76 66.8146 101.207 67.8977C100.536 69.1815 100.378 70.9066 100.812 71.9497C100.97 72.2706 101.19 72.6479 101.427 73.0089C100.767 73.4138 100.174 73.7509 99.6985 73.9911C97.1646 73.0341 94.4254 72.5111 91.5696 72.5111C78.6539 72.5111 68.187 83.1424 68.187 96.261C68.187 109.38 78.6539 120.011 91.5696 120.011C104.485 120.011 114.952 109.38 114.952 96.261C114.952 91.453 113.541 86.9791 111.119 83.2403C111.311 82.543 111.562 81.5462 111.909 80.5044C112.462 80.6649 113.017 80.7756 113.57 80.7756C115.031 80.7756 116.295 80.1739 117.085 79.0907C117.875 78.0075 118.191 76.5632 117.836 75.3597ZM101.879 71.5082C101.405 70.3849 101.958 67.4563 103.854 67.0551C105.749 66.6539 108.712 67.5365 111.635 69.7029C114.557 71.8693 116.216 73.7949 116.73 75.6805C117.197 77.5379 115.785 80.2907 112.307 79.4137C112.345 79.3189 112.384 79.2245 112.424 79.1307C112.582 79.1709 112.78 79.1709 112.977 79.1709C113.451 79.1709 114.004 79.0906 114.439 78.7295C114.755 78.4888 115.11 78.0476 115.071 77.2452C115.071 76.483 114.478 75.5201 113.254 74.3567C112.385 73.5142 111.2 72.5915 110.015 71.749C106.618 69.4623 104.248 68.8204 103.182 69.9036C102.471 70.6257 102.55 71.5083 102.787 72.1502C102.659 72.2357 102.533 72.3187 102.409 72.3993C102.169 72.0535 101.985 71.7463 101.879 71.5082ZM109.383 72.752C108.119 71.9095 107.092 71.3479 106.302 71.0269C105.145 71.9583 104.072 72.7304 103.131 73.3499C102.369 73.851 101.684 74.2774 101.119 74.5824C104.705 76.2183 107.817 78.7465 110.176 81.8892C110.729 80.1244 111.637 77.6028 113.017 75.7608C112.187 74.8782 110.884 73.7549 109.383 72.752ZM113.925 77.2853C113.925 77.165 113.886 76.9644 113.767 76.7638C113.491 77.165 113.214 77.5661 112.977 78.0476C113.254 78.0476 113.57 77.9674 113.728 77.847C113.807 77.7668 113.925 77.6463 113.925 77.2853ZM104.959 70.6658C104.446 70.5856 104.13 70.6658 104.011 70.7862C103.774 70.9868 103.735 71.2676 103.774 71.5484C104.169 71.2676 104.564 70.9868 104.959 70.6658ZM69.4904 96.261C69.4904 108.657 79.3648 118.687 91.5696 118.687C103.735 118.687 113.649 108.657 113.649 96.261C113.649 92.2617 112.621 88.5088 110.819 85.2596C107.035 78.4371 99.837 73.835 91.5696 73.835C79.3648 73.835 69.4904 83.8645 69.4904 96.261Z" fill="url(#paint4_linear_14701_7620)"></path> <path data-v-c493b844="" fill-rule="evenodd" clip-rule="evenodd" d="M101.997 82.5409C101.997 84.535 100.406 86.1516 98.4423 86.1516C96.4791 86.1516 94.8875 84.535 94.8875 82.5409C94.8875 80.5468 96.4791 78.9302 98.4423 78.9302C100.406 78.9302 101.997 80.5468 101.997 82.5409ZM105.749 87.3147C105.749 88.1566 105.077 88.8391 104.248 88.8391C103.42 88.8391 102.748 88.1566 102.748 87.3147C102.748 86.4727 103.42 85.7902 104.248 85.7902C105.077 85.7902 105.749 86.4727 105.749 87.3147Z" fill="url(#paint5_linear_14701_7620)"></path> <path data-v-c493b844="" fill-rule="evenodd" clip-rule="evenodd" d="M70.5569 96.2611C70.5569 96.2413 70.557 96.2216 70.5573 96.2021C70.557 96.1549 70.5569 96.1078 70.5569 96.0605L70.5623 96.0605C70.712 93.3768 73.9353 93.469 79.6808 94.1349C82.3271 94.4558 85.9609 94.6564 89.9897 93.4529C94.6504 92.0086 98.7187 91.6075 102.747 91.9284C108.163 92.3966 112.271 93.7371 112.494 96.0605L112.543 96.0605C112.543 107.35 103.872 116.604 92.9338 117.319L92.9916 117.323C92.5318 117.362 92.0721 117.363 91.5764 117.363L90.7402 117.363C90.8046 117.361 90.8689 117.358 90.9332 117.355C79.7411 117.036 70.7263 107.787 70.5592 96.3831C70.5577 96.3423 70.5569 96.3017 70.5569 96.2611ZM90.1108 112.99C90.7216 112.99 91.2167 112.487 91.2167 111.867C91.2167 111.247 90.7216 110.744 90.1108 110.744C89.5001 110.744 89.0048 111.247 89.0048 111.867C89.0048 112.487 89.5001 112.99 90.1108 112.99ZM96.9833 111.305C96.9833 111.926 96.4882 112.429 95.8774 112.429C95.2667 112.429 94.7714 111.926 94.7714 111.305C94.7714 110.685 95.2667 110.182 95.8774 110.182C96.4882 110.182 96.9833 110.685 96.9833 111.305ZM93.0311 115.036C93.4892 115.036 93.8605 114.659 93.8605 114.194C93.8605 113.729 93.4892 113.351 93.0311 113.351C92.573 113.351 92.2017 113.729 92.2017 114.194C92.2017 114.659 92.573 115.036 93.0311 115.036ZM98.9557 113.592C98.9557 114.057 98.5843 114.434 98.1262 114.434C97.6681 114.434 97.2968 114.057 97.2968 113.592C97.2968 113.127 97.6681 112.749 98.1262 112.749C98.5843 112.749 98.9557 113.127 98.9557 113.592ZM85.408 112.589C86.4114 112.589 87.2248 111.763 87.2248 110.744C87.2248 109.724 86.4114 108.898 85.408 108.898C84.4046 108.898 83.5911 109.724 83.5911 110.744C83.5911 111.763 84.4046 112.589 85.408 112.589ZM103.459 106.21C103.459 107.23 102.646 108.056 101.643 108.056C100.639 108.056 99.8258 107.23 99.8258 106.21C99.8258 105.191 100.639 104.365 101.643 104.365C102.646 104.365 103.459 105.191 103.459 106.21Z" fill="url(#paint6_linear_14701_7620)"></path> <defs data-v-c493b844=""><radialGradient data-v-c493b844="" id="paint0_radial_14701_7620" cx="0" cy="0" r="1" gradientUnits="userSpaceOnUse" gradientTransform="translate(17.0797 83.3113) rotate(7.21097) scale(183.31 166.589)"><stop data-v-c493b844="" offset="0.175179" stop-color="#060543"></stop> <stop data-v-c493b844="" offset="0.71875" stop-color="#670359"></stop> <stop data-v-c493b844="" offset="0.895833" stop-color="#DEEBFF"></stop></radialGradient> <linearGradient data-v-c493b844="" id="paint1_linear_14701_7620" x1="65.5839" y1="107.417" x2="127.107" y2="85.9858" gradientUnits="userSpaceOnUse"><stop data-v-c493b844="" stop-color="#959FFF" stop-opacity="0.49"></stop> <stop data-v-c493b844="" offset="1" stop-color="white" stop-opacity="0"></stop></linearGradient> <linearGradient data-v-c493b844="" id="paint2_linear_14701_7620" x1="65.5839" y1="107.417" x2="127.107" y2="85.9858" gradientUnits="userSpaceOnUse"><stop data-v-c493b844="" stop-color="#959FFF" stop-opacity="0.49"></stop> <stop data-v-c493b844="" offset="1" stop-color="white" stop-opacity="0"></stop></linearGradient> <linearGradient data-v-c493b844="" id="paint3_linear_14701_7620" x1="65.5839" y1="107.417" x2="127.107" y2="85.9858" gradientUnits="userSpaceOnUse"><stop data-v-c493b844="" stop-color="#959FFF" stop-opacity="0.49"></stop> <stop data-v-c493b844="" offset="1" stop-color="white" stop-opacity="0"></stop></linearGradient> <linearGradient data-v-c493b844="" id="paint4_linear_14701_7620" x1="65.5839" y1="107.417" x2="127.107" y2="85.9858" gradientUnits="userSpaceOnUse"><stop data-v-c493b844="" stop-color="#959FFF" stop-opacity="0.49"></stop> <stop data-v-c493b844="" offset="1" stop-color="white" stop-opacity="0"></stop></linearGradient> <linearGradient data-v-c493b844="" id="paint5_linear_14701_7620" x1="65.5839" y1="107.417" x2="127.107" y2="85.9858" gradientUnits="userSpaceOnUse"><stop data-v-c493b844="" stop-color="#959FFF" stop-opacity="0.49"></stop> <stop data-v-c493b844="" offset="1" stop-color="white" stop-opacity="0"></stop></linearGradient> <linearGradient data-v-c493b844="" id="paint6_linear_14701_7620" x1="65.5839" y1="107.417" x2="127.107" y2="85.9858" gradientUnits="userSpaceOnUse"><stop data-v-c493b844="" stop-color="#959FFF" stop-opacity="0.49"></stop> <stop data-v-c493b844="" offset="1" stop-color="white" stop-opacity="0"></stop></linearGradient></defs></svg>