<svg data-v-b0390cec="" data-v-a1b630d2="" width="24" height="24" xmlns="http://www.w3.org/2000/svg" fill-rule="evenodd" clip-rule="evenodd" fill="currentColor"><path data-v-b0390cec="" data-v-a1b630d2="" d="M23.953 2.52809C23.9336 2.43947 23.8911 2.35756 23.8298 2.29065C23.7685 2.22375 23.6906 2.17422 23.604 2.14709C23.2887 2.08464 22.9624 2.10777 22.659 2.21409C22.659 2.21409 1.63003 9.77309 0.429029 10.6101C0.171029 10.7901 0.0840289 10.8951 0.0410289 11.0181C-0.166971 11.6181 0.480029 11.8761 0.480029 11.8761L5.90003 13.6421C5.99167 13.6585 6.08591 13.653 6.17503 13.6261C7.40703 12.8471 18.575 5.79209 19.224 5.55509C19.324 5.52509 19.401 5.55509 19.381 5.63009C19.123 6.53509 9.47203 15.1081 9.41903 15.1601C9.39321 15.1812 9.3731 15.2085 9.36052 15.2394C9.34795 15.2703 9.34331 15.3039 9.34703 15.3371L8.84103 20.6291C8.84103 20.6291 8.62903 22.2761 10.276 20.6291C11.444 19.4601 12.565 18.4921 13.125 18.0211C14.989 19.3081 16.994 20.7311 17.859 21.4761C18.0045 21.6169 18.1769 21.727 18.3659 21.7997C18.5549 21.8723 18.7567 21.9062 18.959 21.8991C19.2082 21.8687 19.4423 21.7632 19.63 21.5965C19.8178 21.4298 19.9503 21.2099 20.01 20.9661C20.01 20.9661 23.84 5.54309 23.968 3.47709C23.981 3.27709 23.998 3.14509 24 3.00609C24.0063 2.84536 23.9904 2.68453 23.953 2.52809Z" style="pointer-events: none;"></path></svg>