<svg data-v-b0390cec="" data-v-a1b630d2="" width="24" height="24" xmlns="http://www.w3.org/2000/svg" fill-rule="evenodd" clip-rule="evenodd" fill="currentColor"><path data-v-b0390cec="" data-v-a1b630d2="" d="M24 11.8009C24 10.2009 22.7 8.90088 21.1 8.90088C20.4 8.90088 19.8 9.10088 19.3 9.50088C17.5 8.40088 15.3 7.70088 12.9 7.60088L14.1 3.70088L17.5 4.50088C17.6 5.70088 18.6 6.70088 19.9 6.70088C21.2 6.70088 22.3 5.60088 22.3 4.30088C22.3 3.00088 21.2 1.90088 19.9 1.90088C19 1.90088 18.2 2.40088 17.8 3.20088L13.8 2.30088C13.5 2.20088 13.1 2.40088 13 2.70088L11.5 7.60088C9 7.70088 6.5 8.30088 4.7 9.50088C4.2 9.10088 3.6 8.90088 2.9 8.90088C1.3 8.90088 0 10.2009 0 11.8009C0 12.8009 0.5 13.7009 1.2 14.2009C1.2 14.4009 1.2 14.7009 1.2 14.9009C1.2 16.9009 2.4 18.7009 4.5 20.1009C6.5 21.4009 9.2 22.1009 12 22.1009C14.8 22.1009 17.5 21.4009 19.5 20.1009C21.6 18.7009 22.8 16.9009 22.8 14.9009C22.8 14.7009 22.8 14.5009 22.8 14.3009C23.5 13.7009 24 12.8009 24 11.8009ZM20 3.20088C20.6 3.20088 21.1 3.70088 21.1 4.30088C21.1 4.90088 20.6 5.40088 20 5.40088C19.4 5.40088 18.9 4.90088 18.9 4.30088C18.9 3.70088 19.4 3.20088 20 3.20088ZM6.8 13.6009C6.8 12.7009 7.6 12.0009 8.4 12.0009C9.3 12.0009 10 12.8009 10 13.6009C10 14.4009 9.3 15.2009 8.4 15.2009C7.6 15.2009 6.8 14.5009 6.8 13.6009ZM16 18.3009C15.2 19.1009 13.9 19.5009 12.1 19.5009C10.3 19.5009 9 19.1009 8.2 18.3009C7.9 18.0009 7.9 17.6009 8.2 17.4009C8.5 17.1009 8.9 17.1009 9.1 17.4009C9.7 18.0009 10.7 18.3009 12.1 18.3009C13.5 18.3009 14.5 18.0009 15.1 17.4009C15.4 17.1009 15.8 17.1009 16 17.4009C16.2 17.7009 16.2 18.1009 16 18.3009ZM15.6 15.2009C14.7 15.2009 13.9 14.5009 13.9 13.6009C13.9 12.7009 14.7 12.0009 15.6 12.0009C16.5 12.0009 17.2 12.8009 17.2 13.6009C17.2 14.4009 16.5 15.2009 15.6 15.2009Z" style="pointer-events: none;"></path></svg>