<svg data-v-c493b844="" width="141" height="141" viewBox="0 0 141 141" fill="none" xmlns="http://www.w3.org/2000/svg"><g data-v-c493b844="" filter="url(#filter0_i_14701_7612)"><path data-v-c493b844="" d="M88.9693 3.18517C126.303 13.1886 148.458 51.5627 138.454 88.896C128.451 126.229 90.077 148.385 52.7436 138.381C15.4102 128.378 -6.74503 90.0037 3.25841 52.6704C13.2619 15.337 51.6359 -6.81827 88.9693 3.18517Z" fill="url(#paint0_radial_14701_7612)"></path> <path data-v-c493b844="" d="M88.9693 3.18517C126.303 13.1886 148.458 51.5627 138.454 88.896C128.451 126.229 90.077 148.385 52.7436 138.381C15.4102 128.378 -6.74503 90.0037 3.25841 52.6704C13.2619 15.337 51.6359 -6.81827 88.9693 3.18517Z" fill="url(#paint1_radial_14701_7612)"></path></g> <path data-v-c493b844="" d="M49.9075 89.747L80.6777 80.3053L72.2935 69.8862L49.9075 89.747ZM63.9224 59.4832L72.3081 69.8877L91.0469 51.2015L63.9224 59.4832Z" fill="url(#paint2_linear_14701_7612)"></path> <defs data-v-c493b844=""><filter data-v-c493b844="" id="filter0_i_14701_7612" x="0.856445" y="0.783203" width="140" height="140" filterUnits="userSpaceOnUse" color-interpolation-filters="sRGB"><feFlood data-v-c493b844="" flood-opacity="0" result="BackgroundImageFix"></feFlood> <feBlend data-v-c493b844="" mode="normal" in="SourceGraphic" in2="BackgroundImageFix" result="shape"></feBlend> <feColorMatrix data-v-c493b844="" in="SourceAlpha" type="matrix" values="0 0 0 0 0 0 0 0 0 0 0 0 0 0 0 0 0 0 127 0" result="hardAlpha"></feColorMatrix> <feOffset data-v-c493b844=""></feOffset> <feGaussianBlur data-v-c493b844="" stdDeviation="12.1905"></feGaussianBlur> <feComposite data-v-c493b844="" in2="hardAlpha" operator="arithmetic" k2="-1" k3="1"></feComposite> <feColorMatrix data-v-c493b844="" type="matrix" values="0 0 0 0 0.917667 0 0 0 0 0.683333 0 0 0 0 1 0 0 0 0.44 0"></feColorMatrix> <feBlend data-v-c493b844="" mode="normal" in2="shape" result="effect1_innerShadow_14701_7612"></feBlend></filter> <radialGradient data-v-c493b844="" id="paint0_radial_14701_7612" cx="0" cy="0" r="1" gradientUnits="userSpaceOnUse" gradientTransform="translate(160.533 39.3318) rotate(154.954) scale(201.168)"><stop data-v-c493b844="" offset="0.630208" stop-color="#00FFB2"></stop> <stop data-v-c493b844="" offset="1" stop-color="white"></stop></radialGradient> <radialGradient data-v-c493b844="" id="paint1_radial_14701_7612" cx="0" cy="0" r="1" gradientUnits="userSpaceOnUse" gradientTransform="translate(0.606441 70.496) rotate(-1.44818) scale(160.786)"><stop data-v-c493b844="" stop-color="#FFA3A3" stop-opacity="0"></stop> <stop data-v-c493b844="" offset="0.737543" stop-color="#4A658E"></stop> <stop data-v-c493b844="" offset="0.9375" stop-color="#A99CEC"></stop></radialGradient> <linearGradient data-v-c493b844="" id="paint2_linear_14701_7612" x1="90.9159" y1="52.1739" x2="50.1243" y2="93.8153" gradientUnits="userSpaceOnUse"><stop data-v-c493b844="" stop-color="#BEFFFF" stop-opacity="0.51"></stop> <stop data-v-c493b844="" offset="1" stop-color="#00FFFF" stop-opacity="0"></stop></linearGradient></defs></svg>