<svg data-v-44de1e4b="" width="64" height="64" viewBox="0 0 64 64" fill="none" xmlns="http://www.w3.org/2000/svg" class="graphics__item"><path d="M32 58C46.3594 58 58 46.3594 58 32C58 17.6406 46.3594 6 32 6C17.6406 6 6 17.6406 6 32C6 46.3594 17.6406 58 32 58Z" fill="white"></path> <path d="M27.1253 49.1461C30.9236 46.992 32.5955 42.857 32.8051 38.8258C33.0048 34.9837 29.1455 32.7498 25.7011 30.9185C21.348 28.6039 18.3847 24.0784 18.3847 18.8841C18.3847 16.9062 18.816 15.0256 19.5895 13.3268C19.8158 12.8298 19.2469 12.2809 18.7903 12.5896C12.5382 16.8176 8.4375 23.8927 8.4375 31.9126C8.4375 38.813 10.7685 28.7562 16.1335 45.3629C17.1315 48.4522 19.6206 51.1567 22.8745 50.6189C24.3407 50.3763 25.812 49.8908 27.1253 49.1461Z" fill="black"></path> <path d="M19.8125 18.9332C19.8126 23.133 22.572 26.5345 25.9599 28.6732C29.1887 30.7115 33.0183 28.6 36.2956 26.6364C40.4376 24.1547 45.8115 23.9031 50.3094 26.4349C52.0221 27.3989 53.4387 28.6731 54.5298 30.1426C54.8492 30.5725 55.6037 30.3682 55.5607 29.8392C54.9698 22.5939 50.8573 15.7451 43.9127 11.8362C37.9373 8.47291 45.5009 15.3075 28.4863 11.6623C25.3211 10.9842 21.7569 11.7301 20.6248 14.6906C20.1147 16.0245 19.8127 17.4813 19.8125 18.9332Z" fill="black"></path> <path d="M49.4563 27.6781C45.7022 25.5063 41.273 26.1569 37.6569 28.0093C34.21 29.7747 34.1707 34.2109 34.2772 38.0882C34.4114 42.9885 31.9325 47.8112 27.4063 50.4296C25.6828 51.4269 23.831 52.0048 21.9685 52.1979C21.4236 52.2544 21.2264 53.0189 21.721 53.2548C28.4948 56.4858 36.6863 56.4362 43.6743 52.3934C49.6873 48.9149 39.7723 51.9851 51.5915 39.0124C53.7903 36.5992 54.9166 33.101 52.8399 30.5814C51.9042 29.4462 50.7541 28.4291 49.4563 27.6781Z" fill="black"></path></svg>